<?xml version="1.0" encoding="UTF-8"?>
<svg version="1.1" xmlns="http://www.w3.org/2000/svg" width="1024" height="1024">
<path d="M0 0 C337.92 0 675.84 0 1024 0 C1024 337.92 1024 675.84 1024 1024 C686.08 1024 348.16 1024 0 1024 C0 686.08 0 348.16 0 0 Z " fill="#E9E9E9" transform="translate(0,0)"/>
<path d="M0 0 C1.45837532 -0.0049926 1.45837532 -0.0049926 2.94621277 -0.01008606 C4.98733045 -0.01510974 7.02845622 -0.01749581 9.06958008 -0.01733398 C12.15004339 -0.01951854 15.23014672 -0.03771834 18.31054688 -0.05664062 C28.85998151 -0.08688028 38.96254426 0.19427924 49.35546875 2.16796875 C50.08048584 2.29373291 50.80550293 2.41949707 51.55249023 2.54907227 C55.84105168 3.3121233 60.09587407 4.25948377 64.35546875 5.16796875 C65.63679688 5.420625 66.918125 5.67328125 68.23828125 5.93359375 C101.1112029 12.71746781 133.27684328 29.24306867 159.35546875 50.16796875 C160.29519531 50.9053125 161.23492188 51.64265625 162.203125 52.40234375 C168.33326184 57.29296186 173.91416167 62.52758946 179.35546875 68.16796875 C180.22171875 69.03421875 181.08796875 69.90046875 181.98046875 70.79296875 C182.76421875 71.57671875 183.54796875 72.36046875 184.35546875 73.16796875 C184.86408447 73.65700684 185.3727002 74.14604492 185.89672852 74.64990234 C190.24110488 78.87723136 194.02550943 83.32839641 197.66796875 88.16796875 C198.22774414 88.90781006 198.78751953 89.64765137 199.36425781 90.40991211 C221.04547431 119.32128927 235.76079352 150.82378689 243.35546875 186.16796875 C243.5167627 186.90466797 243.67805664 187.64136719 243.84423828 188.40039062 C243.9936084 189.09197266 244.14297852 189.78355469 244.296875 190.49609375 C244.42392822 191.08422852 244.55098145 191.67236328 244.68188477 192.27832031 C247.37779713 206.29395692 247.59169285 220.55821097 247.60546875 234.79296875 C247.60647583 235.52887238 247.60748291 236.264776 247.60852051 237.02297974 C247.59695119 249.62519598 246.64563511 261.75887645 244.35546875 274.16796875 C244.10869348 275.68087858 243.86258715 277.19389768 243.6171875 278.70703125 C234.25919288 332.2964896 201.47060202 384.19757272 158.35546875 417.16796875 C157.22590324 418.07209364 156.0970416 418.97709835 154.96875 419.8828125 C137.80475636 433.43820979 118.54384167 443.87410389 98.35546875 452.16796875 C97.68708984 452.45075684 97.01871094 452.73354492 96.33007812 453.02490234 C69.97393027 464.11344378 41.2017131 468.39487618 12.79296875 468.35546875 C11.99011444 468.3548645 11.18726013 468.35426025 10.3600769 468.3536377 C-0.36671447 468.33169139 -11.00160605 468.2836768 -21.60839844 466.50537109 C-23.80599334 466.14121328 -26.00859453 465.83836209 -28.21484375 465.53125 C-72.64211733 458.74700751 -117.02460845 436.18194972 -149.01269531 404.76904297 C-150.79069986 403.02455557 -152.58888466 401.30215713 -154.38671875 399.578125 C-162.58021802 391.63957589 -169.92371931 383.38454439 -176.64453125 374.16796875 C-177.41152344 373.12253906 -178.17851562 372.07710937 -178.96875 371 C-213.53303012 322.44110734 -231.90862854 258.95057742 -222.03808594 199.43701172 C-221.90821289 198.68822754 -221.77833984 197.93944336 -221.64453125 197.16796875 C-221.49918945 196.29930176 -221.35384766 195.43063477 -221.20410156 194.53564453 C-215.04184071 158.85972118 -201.084979 125.34018775 -179.64453125 96.16796875 C-179.15355957 95.49749512 -178.66258789 94.82702148 -178.15673828 94.13623047 C-171.58798833 85.26830466 -164.28871227 77.11619409 -156.64453125 69.16796875 C-155.94046143 68.43102783 -155.94046143 68.43102783 -155.22216797 67.67919922 C-121.80456497 32.85700345 -75.15616459 10.09273414 -27.76953125 2.10546875 C-26.86460937 1.94949219 -25.9596875 1.79351562 -25.02734375 1.6328125 C-16.69121959 0.48731738 -8.40953255 0.01033497 0 0 Z " fill="#353B41" transform="translate(499.64453125,276.83203125)"/>
<path d="M0 0 C1.45837532 -0.0049926 1.45837532 -0.0049926 2.94621277 -0.01008606 C4.98733045 -0.01510974 7.02845622 -0.01749581 9.06958008 -0.01733398 C12.15004339 -0.01951854 15.23014672 -0.03771834 18.31054688 -0.05664062 C28.85998151 -0.08688028 38.96254426 0.19427924 49.35546875 2.16796875 C50.08048584 2.29373291 50.80550293 2.41949707 51.55249023 2.54907227 C55.84105168 3.3121233 60.09587407 4.25948377 64.35546875 5.16796875 C65.63679688 5.420625 66.918125 5.67328125 68.23828125 5.93359375 C101.1112029 12.71746781 133.27684328 29.24306867 159.35546875 50.16796875 C160.29519531 50.9053125 161.23492188 51.64265625 162.203125 52.40234375 C168.33326184 57.29296186 173.91416167 62.52758946 179.35546875 68.16796875 C180.22171875 69.03421875 181.08796875 69.90046875 181.98046875 70.79296875 C182.76421875 71.57671875 183.54796875 72.36046875 184.35546875 73.16796875 C184.86408447 73.65700684 185.3727002 74.14604492 185.89672852 74.64990234 C190.24110488 78.87723136 194.02550943 83.32839641 197.66796875 88.16796875 C198.22774414 88.90781006 198.78751953 89.64765137 199.36425781 90.40991211 C221.04547431 119.32128927 235.76079352 150.82378689 243.35546875 186.16796875 C243.5167627 186.90466797 243.67805664 187.64136719 243.84423828 188.40039062 C243.9936084 189.09197266 244.14297852 189.78355469 244.296875 190.49609375 C244.42392822 191.08422852 244.55098145 191.67236328 244.68188477 192.27832031 C247.37779713 206.29395692 247.59169285 220.55821097 247.60546875 234.79296875 C247.60647583 235.52887238 247.60748291 236.264776 247.60852051 237.02297974 C247.59695119 249.62519598 246.64563511 261.75887645 244.35546875 274.16796875 C244.10869348 275.68087858 243.86258715 277.19389768 243.6171875 278.70703125 C234.25919288 332.2964896 201.47060202 384.19757272 158.35546875 417.16796875 C157.22590324 418.07209364 156.0970416 418.97709835 154.96875 419.8828125 C137.80475636 433.43820979 118.54384167 443.87410389 98.35546875 452.16796875 C97.68708984 452.45075684 97.01871094 452.73354492 96.33007812 453.02490234 C69.97393027 464.11344378 41.2017131 468.39487618 12.79296875 468.35546875 C11.99011444 468.3548645 11.18726013 468.35426025 10.3600769 468.3536377 C-0.36671447 468.33169139 -11.00160605 468.2836768 -21.60839844 466.50537109 C-23.80599334 466.14121328 -26.00859453 465.83836209 -28.21484375 465.53125 C-72.64211733 458.74700751 -117.02460845 436.18194972 -149.01269531 404.76904297 C-150.79069986 403.02455557 -152.58888466 401.30215713 -154.38671875 399.578125 C-162.58021802 391.63957589 -169.92371931 383.38454439 -176.64453125 374.16796875 C-177.41152344 373.12253906 -178.17851562 372.07710937 -178.96875 371 C-213.53303012 322.44110734 -231.90862854 258.95057742 -222.03808594 199.43701172 C-221.90821289 198.68822754 -221.77833984 197.93944336 -221.64453125 197.16796875 C-221.49918945 196.29930176 -221.35384766 195.43063477 -221.20410156 194.53564453 C-215.04184071 158.85972118 -201.084979 125.34018775 -179.64453125 96.16796875 C-179.15355957 95.49749512 -178.66258789 94.82702148 -178.15673828 94.13623047 C-171.58798833 85.26830466 -164.28871227 77.11619409 -156.64453125 69.16796875 C-155.94046143 68.43102783 -155.94046143 68.43102783 -155.22216797 67.67919922 C-121.80456497 32.85700345 -75.15616459 10.09273414 -27.76953125 2.10546875 C-26.86460937 1.94949219 -25.9596875 1.79351562 -25.02734375 1.6328125 C-16.69121959 0.48731738 -8.40953255 0.01033497 0 0 Z M-99.171875 37.6953125 C-106.17567617 44.69911367 -111.97715036 52.43823783 -116.64453125 61.16796875 C-117.0003125 61.82539063 -117.35609375 62.4828125 -117.72265625 63.16015625 C-120.23487413 68.2842832 -121.77569997 73.69594148 -123.33203125 79.16796875 C-123.54674072 79.915625 -123.7614502 80.66328125 -123.98266602 81.43359375 C-124.18432373 82.1709375 -124.38598145 82.90828125 -124.59375 83.66796875 C-124.77252686 84.31765625 -124.95130371 84.96734375 -125.13549805 85.63671875 C-126.48798003 92.36215432 -126.7898454 99.07964258 -126.7421875 105.921875 C-126.74006508 107.10135963 -126.74006508 107.10135963 -126.73789978 108.30467224 C-126.73236797 110.7799789 -126.719829 113.25519012 -126.70703125 115.73046875 C-126.70200741 117.42382681 -126.69744606 119.1171863 -126.69335938 120.81054688 C-126.68242103 124.92972345 -126.66520487 129.04883 -126.64453125 133.16796875 C-128.29453125 133.16796875 -129.94453125 133.16796875 -131.64453125 133.16796875 C-131.09514722 143.42313739 -127.6306 153.10225541 -123.9453125 162.6171875 C-123.66647217 163.33769287 -123.38763184 164.05819824 -123.1003418 164.80053711 C-122.55720979 166.18478157 -122.00310393 167.56478336 -121.43676758 168.93969727 C-120.02561634 172.49982372 -119.34258276 174.55491009 -120.64453125 178.16796875 C-121.83691406 180.08056641 -121.83691406 180.08056641 -123.34765625 182.08203125 C-123.9096875 182.83444092 -124.47171875 183.58685059 -125.05078125 184.36206055 C-125.65921875 185.16426025 -126.26765625 185.96645996 -126.89453125 186.79296875 C-128.17140899 188.4993747 -129.44742966 190.20642226 -130.72265625 191.9140625 C-131.37427734 192.78401855 -132.02589844 193.65397461 -132.69726562 194.55029297 C-136.25651644 199.33493279 -139.72646589 204.18374904 -143.20410156 209.02783203 C-143.70006836 209.71731934 -144.19603516 210.40680664 -144.70703125 211.1171875 C-145.18527344 211.78282715 -145.66351563 212.4484668 -146.15625 213.13427734 C-148.23104011 215.96941541 -150.38178646 218.74518508 -152.54296875 221.51489258 C-153.82937459 223.11427674 -153.82937459 223.11427674 -153.64453125 225.16796875 C-149.35453125 225.49796875 -145.06453125 225.82796875 -140.64453125 226.16796875 C-141.41023438 227.35326172 -141.41023438 227.35326172 -142.19140625 228.5625 C-144.19847745 231.6732025 -146.19624984 234.78980924 -148.19287109 237.90722656 C-149.20862329 239.48910772 -150.22743358 241.06902751 -151.24853516 242.64746094 C-152.90768143 245.21279 -154.55790611 247.78368907 -156.20703125 250.35546875 C-157.01188965 251.593573 -157.01188965 251.593573 -157.83300781 252.85668945 C-158.32897461 253.63359131 -158.82494141 254.41049316 -159.3359375 255.2109375 C-159.78138916 255.9021167 -160.22684082 256.5932959 -160.68579102 257.30541992 C-161.87336719 259.26339266 -161.87336719 259.26339266 -161.64453125 262.16796875 C-154.71453125 262.16796875 -147.78453125 262.16796875 -140.64453125 262.16796875 C-141.340625 263.65683594 -142.03671875 265.14570312 -142.75390625 266.6796875 C-145.77623773 273.33286643 -148.46002335 280.09904713 -151.09375 286.9128418 C-151.90102488 288.99723539 -152.71788183 291.07771309 -153.53515625 293.15820312 C-154.05657281 294.50107577 -154.57742668 295.84416707 -155.09765625 297.1875 C-155.56333008 298.38479736 -156.02900391 299.58209473 -156.50878906 300.81567383 C-157.87285661 304.54626901 -157.87285661 304.54626901 -158.64453125 310.16796875 C-147.42453125 310.49796875 -136.20453125 310.82796875 -124.64453125 311.16796875 C-131.08203125 318.41796875 -131.08203125 318.41796875 -133.11108398 320.68066406 C-133.63645752 321.27975586 -134.16183105 321.87884766 -134.703125 322.49609375 C-135.24251709 323.10356445 -135.78190918 323.71103516 -136.33764648 324.33691406 C-137.73266983 326.29145826 -138.22549635 327.82137331 -138.64453125 330.16796875 C-134.1505196 333.17007836 -129.38628346 334.866531 -124.33203125 336.66796875 C-121.88477952 337.55261065 -119.43775657 338.4377424 -116.99267578 339.32836914 C-115.45915855 339.87669164 -113.91848052 340.40549039 -112.37060547 340.91186523 C-108.18584871 342.32934478 -105.72262143 343.43728734 -103.39453125 347.23046875 C-102.83121094 348.11089844 -102.26789063 348.99132812 -101.6875 349.8984375 C-101.01332031 350.97738281 -100.33914063 352.05632812 -99.64453125 353.16796875 C-98.20071524 355.35072508 -96.74187607 357.52303286 -95.28271484 359.69555664 C-91.93286102 364.68608105 -88.61292452 369.69664994 -85.3046875 374.71484375 C-81.5861636 380.33902193 -77.78040253 385.84146786 -73.64453125 391.16796875 C-70.59790243 388.60379728 -69.43502027 385.75827644 -67.95703125 382.10546875 C-67.52003906 381.04199219 -67.08304687 379.97851562 -66.6328125 378.8828125 C-65.53050834 376.33626556 -65.53050834 376.33626556 -65.64453125 374.16796875 C-64.98453125 374.16796875 -64.32453125 374.16796875 -63.64453125 374.16796875 C-63.4678038 374.7193602 -63.29107635 375.27075165 -63.10899353 375.83885193 C-61.35801679 381.2085068 -59.39369329 386.43307874 -57.2109375 391.640625 C-56.89172836 392.4079747 -56.57251923 393.1753244 -56.24363708 393.96592712 C-55.57373212 395.57404471 -54.90225195 397.18150695 -54.22924805 398.78833008 C-53.20883486 401.22615981 -52.19490377 403.66661297 -51.18164062 406.10742188 C-50.5251252 407.68115051 -49.86823663 409.25472354 -49.2109375 410.828125 C-48.91288712 411.54605728 -48.61483673 412.26398956 -48.30775452 413.00367737 C-46.27885556 417.83327821 -44.02776894 422.50266392 -41.64453125 427.16796875 C-38.04976424 423.67590937 -34.72426934 420.127632 -31.64453125 416.16796875 C-31.64453125 415.50796875 -31.64453125 414.84796875 -31.64453125 414.16796875 C-27.69255659 416.35796193 -24.56746032 418.89963025 -21.26953125 421.98046875 C-20.75841797 422.45548828 -20.24730469 422.93050781 -19.72070312 423.41992188 C-18.02454212 424.99826571 -16.33443048 426.58292415 -14.64453125 428.16796875 C-13.4130787 429.31804923 -12.18130029 430.46778088 -10.94921875 431.6171875 C-9.04746485 433.39165191 -7.14609169 435.16650947 -5.24633789 436.94311523 C0.58334938 442.3926547 6.46063175 447.78906721 12.35546875 453.16796875 C17.50130075 449.55493777 21.98748281 445.66270237 26.37109375 441.16015625 C28.83470998 438.68684074 31.44298261 436.42648738 34.0859375 434.1484375 C40.96076093 428.14923702 47.72462234 421.98810258 54.05078125 415.41015625 C55.35546875 414.16796875 55.35546875 414.16796875 57.35546875 413.16796875 C57.61328125 413.73 57.87109375 414.29203125 58.13671875 414.87109375 C59.49716652 417.43501454 61.08335837 419.6202324 62.85546875 421.91796875 C63.46390625 422.7171875 64.07234375 423.51640625 64.69921875 424.33984375 C65.5190625 425.24476563 65.5190625 425.24476563 66.35546875 426.16796875 C67.01546875 426.16796875 67.67546875 426.16796875 68.35546875 426.16796875 C74.51899314 412.49871981 80.38947606 398.71327955 86.20556641 384.89306641 C87.57586175 381.64567009 88.96144989 378.40524178 90.35546875 375.16796875 C92.9972615 378.35981218 94.50095892 381.58378214 96.04296875 385.41796875 C96.47996094 386.495625 96.91695312 387.57328125 97.3671875 388.68359375 C97.69332031 389.5034375 98.01945312 390.32328125 98.35546875 391.16796875 C102.19710584 389.88742305 102.68600326 388.4979084 104.796875 385.09375 C105.45840576 384.03986084 106.11993652 382.98597168 106.80151367 381.90014648 C107.1473349 381.34124725 107.49315613 380.78234802 107.84945679 380.20651245 C113.36061863 371.30393905 119.01303079 362.55268507 125.2421875 354.1328125 C127.31722117 351.43720253 127.31722117 351.43720253 128.20117188 349.23046875 C130.6891865 343.97633807 133.97042577 342.03878161 139.30078125 340.05078125 C142.01256364 339.08366398 144.74278645 338.18362466 147.48046875 337.29296875 C149.55802705 336.58872803 151.63276806 335.87675716 153.70675659 335.16207886 C155.58021277 334.52098466 157.46013712 333.89888509 159.34033203 333.27783203 C162.47385037 332.25742094 162.47385037 332.25742094 165.35546875 330.16796875 C164.05224079 327.34578488 162.62013266 325.11741722 160.5703125 322.78515625 C160.03986328 322.17542969 159.50941406 321.56570313 158.96289062 320.9375 C158.1362793 319.99970703 158.1362793 319.99970703 157.29296875 319.04296875 C156.19610135 317.7919539 155.10096481 316.5394187 154.0078125 315.28515625 C153.52304443 314.73456543 153.03827637 314.18397461 152.53881836 313.61669922 C151.35546875 312.16796875 151.35546875 312.16796875 150.35546875 310.16796875 C161.57546875 310.16796875 172.79546875 310.16796875 184.35546875 310.16796875 C183.5114552 304.97537613 183.5114552 304.97537613 181.98852539 300.16967773 C181.57788597 299.08341347 181.57788597 299.08341347 181.15895081 297.97520447 C180.86415329 297.21252762 180.56935577 296.44985077 180.265625 295.6640625 C179.96103867 294.86315689 179.65645233 294.06225128 179.34263611 293.23707581 C178.37296375 290.69117984 177.39555008 288.14833682 176.41796875 285.60546875 C175.76447092 283.89276998 175.11147106 282.17988112 174.45898438 280.46679688 C172.12670068 274.35225223 169.78599193 268.24427669 167.35546875 262.16796875 C174.28546875 262.16796875 181.21546875 262.16796875 188.35546875 262.16796875 C186.96624515 258.69490974 185.82126097 256.08798349 183.88671875 253.015625 C183.40235352 252.24516846 182.91798828 251.47471191 182.41894531 250.6809082 C181.90299805 249.87226318 181.38705078 249.06361816 180.85546875 248.23046875 C180.32663086 247.39668701 179.79779297 246.56290527 179.25292969 245.70385742 C174.54132707 238.33686775 169.54413993 231.20481705 164.35546875 224.16796875 C165.07089844 224.33167969 165.78632812 224.49539063 166.5234375 224.6640625 C169.31375269 225.16054617 171.83901905 225.26818808 174.66796875 225.23046875 C175.55097656 225.22144531 176.43398438 225.21242188 177.34375 225.203125 C178.00761719 225.19152344 178.67148437 225.17992187 179.35546875 225.16796875 C177.79040173 220.37209087 175.08202357 216.85996279 172.04296875 212.91796875 C171.51678955 212.22630615 170.99061035 211.53464355 170.44848633 210.82202148 C168.75604397 208.59995773 167.0557704 206.38402217 165.35546875 204.16796875 C164.20908725 202.66448031 163.06325179 201.16057536 161.91796875 199.65625 C161.357146 198.92100098 160.79632324 198.18575195 160.21850586 197.42822266 C159.10835828 195.97207396 157.99977597 194.51473048 156.89282227 193.05615234 C154.02170841 189.28685464 151.05826741 185.64699143 147.98046875 182.04296875 C145.78294769 179.19271866 145.36861004 178.52278368 145.23046875 174.79296875 C145.60171875 173.59671875 145.97296875 172.40046875 146.35546875 171.16796875 C146.88148809 169.25271886 147.40197784 167.33594473 147.91796875 165.41796875 C148.32208984 164.03351563 148.32208984 164.03351563 148.734375 162.62109375 C149.47818886 160.10501781 149.47818886 160.10501781 149.35546875 157.16796875 C148.71222656 157.30074219 148.06898438 157.43351562 147.40625 157.5703125 C127.74013807 161.41376091 127.74013807 161.41376091 123.3515625 159.12109375 C120.3275024 157.67711985 118.57313414 158.31017881 115.35546875 159.16796875 C112.3740862 160.39547099 109.49244084 161.79688655 106.60546875 163.23046875 C105.09149917 163.97473111 103.5759456 164.71578267 102.05859375 165.453125 C101.39504883 165.7819165 100.73150391 166.11070801 100.04785156 166.44946289 C98.35546875 167.16796875 98.35546875 167.16796875 96.35546875 167.16796875 C96.44803955 166.19355835 96.44803955 166.19355835 96.54248047 165.19946289 C96.80648781 162.2117178 97.01871851 159.22235354 97.23046875 156.23046875 C97.37742187 154.6980957 97.37742187 154.6980957 97.52734375 153.13476562 C97.96129173 146.34347967 97.12268732 142.51828905 92.84936523 137.15820312 C91.26052421 135.04147948 90.42467991 133.08985907 89.54296875 130.60546875 C87.19938698 125.01393548 82.98139733 121.89587857 78.35546875 118.16796875 C76.82913211 116.84093888 75.30790372 115.50800004 73.79296875 114.16796875 C72.64745728 113.16760006 71.5017521 112.16745287 70.35546875 111.16796875 C70.76775072 105.78716042 73.84268322 102.1927682 76.91796875 97.98046875 C77.46300049 97.22233887 78.00803223 96.46420898 78.56958008 95.68310547 C82.65888211 90.03140137 86.91482287 84.54780668 91.35546875 79.16796875 C92.01417969 78.32492187 92.67289063 77.481875 93.3515625 76.61328125 C97.84354354 70.92618599 102.62998277 65.68673476 107.73046875 60.54296875 C108.64143311 59.61822754 108.64143311 59.61822754 109.57080078 58.67480469 C110.43487549 57.81677246 110.43487549 57.81677246 111.31640625 56.94140625 C111.82993652 56.43013184 112.3434668 55.91885742 112.87255859 55.39208984 C114.35546875 54.16796875 114.35546875 54.16796875 117.35546875 53.16796875 C118.42049654 55.25504115 119.41052899 57.30857324 120.265625 59.4921875 C121.6938717 62.42130362 122.7962331 64.10555046 125.35546875 66.16796875 C130.86771941 67.60522476 136.70527975 67.325268 142.35546875 67.16796875 C138.54639134 53.50010274 129.21648982 40.16726203 117.35546875 32.16796875 C107.76561367 32.93354542 96.1991368 47.66850886 89.35546875 54.16796875 C88.11410156 55.34552734 88.11410156 55.34552734 86.84765625 56.546875 C82.06422163 61.20530697 77.77858472 66.13823765 73.609375 71.3515625 C72.11784901 73.21532374 70.6049392 75.06218943 69.0703125 76.890625 C59.50382936 87.1076036 59.50382936 87.1076036 54.35546875 99.16796875 C53.21839478 98.98621094 53.21839478 98.98621094 52.05834961 98.80078125 C28.94138186 95.17541045 7.53384439 94.14783941 -15.77587891 97.18774414 C-16.8591748 97.32688232 -17.9424707 97.46602051 -19.05859375 97.609375 C-20.01717285 97.74029541 -20.97575195 97.87121582 -21.96337891 98.00610352 C-24.80520131 98.17766865 -26.93081035 98.03313011 -29.64453125 97.16796875 C-31.0949707 95.74438477 -31.0949707 95.74438477 -32.2578125 93.921875 C-32.69673828 93.25446289 -33.13566406 92.58705078 -33.58789062 91.89941406 C-34.03970703 91.18366211 -34.49152344 90.46791016 -34.95703125 89.73046875 C-35.92958094 88.25602092 -36.90484408 86.7833593 -37.8828125 85.3125 C-38.35541504 84.59658691 -38.82801758 83.88067383 -39.31494141 83.14306641 C-50.89257332 65.94456435 -67.23790003 49.52389271 -83.45703125 36.66796875 C-84.03751221 36.20511475 -84.61799316 35.74226074 -85.21606445 35.26538086 C-91.62650107 30.35157402 -93.83626321 32.7761387 -99.171875 37.6953125 Z " fill="#C22E3C" transform="translate(499.64453125,276.83203125)"/>
<path d="M0 0 C0.20392395 8.16545482 -0.80130962 15.95539697 -1.93359375 24.02929688 C-2.78748498 30.40095194 -3.19222936 36.57188578 -3 43 C-2.29359375 42.71125 -1.5871875 42.4225 -0.859375 42.125 C13.46033658 36.94399883 28.90977585 37.13300031 43 43 C43.66 43.33 44.32 43.66 45 44 C44.59417174 39.96118795 44.18513616 35.92271458 43.77319336 31.88452148 C43.63365036 30.51221395 43.49496688 29.13981873 43.35717773 27.76733398 C43.15837816 25.78866823 42.95617774 23.8103451 42.75390625 21.83203125 C42.57323608 20.04889526 42.57323608 20.04889526 42.38891602 18.22973633 C42.05296055 15.43980863 41.56339518 12.74984795 41 10 C40.93540958 8.23022239 40.91388935 6.45829848 40.9375 4.6875 C40.94652344 3.80449219 40.95554687 2.92148437 40.96484375 2.01171875 C40.98224609 1.01591797 40.98224609 1.01591797 41 0 C53.81787707 5.21003779 63.63830995 23.95746492 71 35 C74.77602585 34.4030299 77.69068724 33.31042198 81.0625 31.5234375 C82.01866211 31.02030029 82.97482422 30.51716309 83.95996094 29.9987793 C84.96317383 29.46293213 85.96638672 28.92708496 87 28.375 C88.02641602 27.83464111 89.05283203 27.29428223 90.11035156 26.73754883 C94.52996678 24.40528424 98.93531303 22.05256457 103.296875 19.61328125 C104.43640625 18.97777344 105.5759375 18.34226562 106.75 17.6875 C107.71421875 17.13449219 108.6784375 16.58148437 109.671875 16.01171875 C112 15 112 15 115 16 C115.94921875 19.16015625 115.94921875 19.16015625 116.6875 23.0625 C117.06455078 24.99802734 117.06455078 24.99802734 117.44921875 26.97265625 C117.72185547 28.47119141 117.72185547 28.47119141 118 30 C123.61067805 20.6005615 123.87124155 11.64013013 124 1 C129.27125722 1.63690866 133.80597182 3.27043292 138.6875 5.25 C139.44611328 5.53746094 140.20472656 5.82492187 140.98632812 6.12109375 C141.71658203 6.41628906 142.44683594 6.71148438 143.19921875 7.015625 C143.85752686 7.27633789 144.51583496 7.53705078 145.1940918 7.80566406 C149.81928434 10.86453143 151.40173297 17.21137959 153.3203125 22.1875 C153.77650467 23.35768677 153.77650467 23.35768677 154.24191284 24.55151367 C154.88112389 26.19460637 155.518055 27.83858766 156.15283203 29.48339844 C157.12272741 31.99411705 158.10184691 34.50109547 159.08203125 37.0078125 C159.70368049 38.60915947 160.32479249 40.21071512 160.9453125 41.8125 C161.23697296 42.55846436 161.52863342 43.30442871 161.82913208 44.07299805 C163.22149019 47.69749336 164.40029246 51.14216573 165 55 C157.48241031 54.22978804 150.03073701 53.14960034 142.5625 52 C141.37978516 51.82210937 140.19707031 51.64421875 138.97851562 51.4609375 C137.85251953 51.28820312 136.72652344 51.11546875 135.56640625 50.9375 C134.54490479 50.78152344 133.52340332 50.62554688 132.47094727 50.46484375 C130 50 130 50 128 49 C128.33845947 49.65073486 128.67691895 50.30146973 129.02563477 50.97192383 C130.54830332 53.91354407 132.0555322 56.86280785 133.5625 59.8125 C134.09552734 60.83666016 134.62855469 61.86082031 135.17773438 62.91601562 C135.67724609 63.89892578 136.17675781 64.88183594 136.69140625 65.89453125 C137.15748291 66.80050049 137.62355957 67.70646973 138.10375977 68.63989258 C139 71 139 71 138 74 C136.11416489 75.49345974 134.23966836 76.84523698 132.25 78.1875 C125.75416193 82.69893137 119.41822401 87.3977558 113.125 92.1875 C112.24618164 92.85225342 111.36736328 93.51700684 110.46191406 94.2019043 C102.51905343 100.25679417 95.21002781 106.1720312 89.1875 114.1875 C88.72408203 114.79013672 88.26066406 115.39277344 87.78320312 116.01367188 C86.51297763 117.66914458 85.25345739 119.33180855 84 121 C83.48373047 121.59627197 82.96746094 122.19254395 82.43554688 122.80688477 C80.60335952 125.60595602 80.18763032 128.00601008 79.61328125 131.296875 C79.2894043 133.10478516 79.2894043 133.10478516 78.95898438 134.94921875 C78.74564453 136.20347656 78.53230469 137.45773437 78.3125 138.75 C78.08755859 140.01972656 77.86261719 141.28945313 77.63085938 142.59765625 C77.07736857 145.73017869 76.53416241 148.86413381 76 152 C72.59787701 150.38617243 69.89675481 148.41396234 67 146 C66.29875 146.71285156 65.5975 147.42570313 64.875 148.16015625 C60.00099142 153.0893553 55.10387909 157.88693249 49.828125 162.390625 C47.97062012 164.02586434 46.23393991 165.73481793 44.5 167.5 C42.16974555 169.87224102 39.77895594 172.09113517 37.25 174.25 C31.8793914 178.86999205 26.96466658 183.9531974 22 189 C17.27867892 187.5758355 14.4899539 184.80683308 11.1875 181.3125 C10.12565841 180.21814642 9.06185773 179.12569028 7.99609375 178.03515625 C7.48288574 177.50937988 6.96967773 176.98360352 6.44091797 176.44189453 C4.03347409 174.03281905 1.45083583 171.84657926 -1.140625 169.640625 C-3.89082773 167.21397553 -6.42388177 164.58513769 -8.99609375 161.97265625 C-11.5726053 159.43632422 -14.29426301 157.09772743 -17.03515625 154.7421875 C-20.16363209 151.96823079 -23.08580113 148.99616071 -26 146 C-29.69418201 147.231394 -31.35109746 149.20791354 -34 152 C-34.44175583 150.29087673 -34.88246721 148.58147774 -35.31835938 146.87084961 C-35.69320425 145.40056991 -36.07219382 143.93134139 -36.45507812 142.46313477 C-37.48602522 138.42038731 -38.15911089 134.60392242 -38.5 130.4375 C-39.73318515 122.94788012 -45.49509207 117.37450668 -50.36376953 111.86181641 C-51.47772502 110.59428066 -52.57189879 109.30914626 -53.64794922 108.00927734 C-57.8817325 102.95573827 -62.49085454 98.95653953 -67.75 95 C-68.54204834 94.39406006 -69.33409668 93.78812012 -70.15014648 93.16381836 C-75.2403524 89.28371139 -80.38371181 85.48243643 -85.5859375 81.75390625 C-89.46691121 78.93423441 -93.23640447 75.97370511 -97 73 C-96.42022443 69.52401836 -95.53478895 66.70895302 -93.93359375 63.57421875 C-93.3293457 62.38022461 -93.3293457 62.38022461 -92.71289062 61.16210938 C-92.29201172 60.34548828 -91.87113281 59.52886719 -91.4375 58.6875 C-91.01275391 57.85154297 -90.58800781 57.01558594 -90.15039062 56.15429688 C-89.1056521 54.10003574 -88.05540238 52.04879708 -87 50 C-90.2923566 50.4534601 -93.58373479 50.91369059 -96.875 51.375 C-98.25171875 51.56449219 -98.25171875 51.56449219 -99.65625 51.7578125 C-105.03164462 52.51491033 -110.32117147 53.42524186 -115.61767578 54.61962891 C-118.43786818 55.06991173 -121.14891177 55.05912987 -124 55 C-120.85388045 45.34401244 -117.59525121 35.74517113 -113.93530273 26.27075195 C-113.43086937 24.94980517 -112.93793203 23.62441854 -112.45581055 22.29516602 C-107.90225757 9.76567349 -107.90225757 9.76567349 -103.00390625 7.27734375 C-101.68152775 6.81489757 -100.34658025 6.38634569 -99 6 C-97.92234375 5.51015625 -96.8446875 5.0203125 -95.734375 4.515625 C-94.74953125 4.09796875 -93.7646875 3.6803125 -92.75 3.25 C-91.75484375 2.82203125 -90.7596875 2.3940625 -89.734375 1.953125 C-87 1 -87 1 -83 1 C-82.97421875 2.11117187 -82.9484375 3.22234375 -82.921875 4.3671875 C-82.65517297 12.14351924 -82.3707565 18.92000917 -78.83984375 26.01953125 C-78 28 -78 28 -78 32 C-77.34 32 -76.68 32 -76 32 C-75.95101562 31.28714844 -75.90203125 30.57429687 -75.8515625 29.83984375 C-75.41871477 24.29491509 -74.75971184 19.27913551 -73 14 C-69.61680379 15.2827408 -66.53093771 16.74660967 -63.41015625 18.57421875 C-62.54962646 19.0741333 -61.68909668 19.57404785 -60.80249023 20.08911133 C-59.89829346 20.61657959 -58.99409668 21.14404785 -58.0625 21.6875 C-48.58127374 27.14773764 -48.58127374 27.14773764 -38.9375 32.3125 C-37.87402344 32.86550781 -36.81054688 33.41851563 -35.71484375 33.98828125 C-32.71841525 35.1049359 -31.90354934 35.12943389 -29 34 C-27.51247736 32.50484933 -27.51247736 32.50484933 -26.30078125 30.5703125 C-25.57689209 29.50840698 -25.57689209 29.50840698 -24.83837891 28.42504883 C-24.33483887 27.66603271 -23.83129883 26.9070166 -23.3125 26.125 C-22.2465861 24.56688755 -21.1775611 23.01089896 -20.10546875 21.45703125 C-19.3172876 20.31355225 -19.3172876 20.31355225 -18.51318359 19.14697266 C-5.01842165 0 -5.01842165 0 0 0 Z " fill="#F9FAFA" transform="translate(492,514)"/>
<path d="M0 0 C1.7890625 2.1171875 1.7890625 2.1171875 3.625 4.875 C4.23601563 5.77992188 4.84703125 6.68484375 5.4765625 7.6171875 C7 10 7 10 8 12 C10.22403526 12.18358072 12.45632621 12.26893134 14.6875 12.3125 C29.02696714 12.9710151 41.4238331 18.77363455 51.3125 29.25 C61.1270931 41.57530296 62.31954667 54.86080268 61 70 C59.6433374 76.95558761 56.34164532 83.43726694 52 89 C50.948125 90.4540625 50.948125 90.4540625 49.875 91.9375 C41.19375919 102.05234021 29.09075558 106.17178758 16.27734375 107.7578125 C11.41941273 108.11680144 7.28098786 107.621213 2.56884766 106.33789062 C-0.52272179 105.93124435 -1.79509841 106.48567877 -4.5390625 107.90625 C-5.78042969 108.52693359 -5.78042969 108.52693359 -7.046875 109.16015625 C-7.89765625 109.60230469 -8.7484375 110.04445313 -9.625 110.5 C-11.32098078 111.37345557 -13.02134112 112.2384749 -14.7265625 113.09375 C-15.47502441 113.48240234 -16.22348633 113.87105469 -16.99462891 114.27148438 C-19 115 -19 115 -22 114 C-21.9074292 113.0255896 -21.9074292 113.0255896 -21.81298828 112.03149414 C-21.54898094 109.04374905 -21.33675024 106.05438479 -21.125 103.0625 C-21.02703125 102.04091797 -20.9290625 101.01933594 -20.828125 99.96679688 C-20.39293181 93.15602346 -21.24483237 89.33599291 -25.53662109 83.96582031 C-27.07290237 81.90206709 -27.76570744 80.13738563 -28.5 77.6875 C-31.24810281 70.94215673 -37.8749015 66.68285942 -43.43774414 62.29931641 C-45.07484776 60.93774968 -46.58933249 59.59725674 -48 58 C-48.08369498 52.82021086 -44.35333707 48.80639871 -41.4375 44.8125 C-40.89246826 44.05437012 -40.34743652 43.29624023 -39.78588867 42.51513672 C-35.69653849 36.86336608 -31.4397257 31.38065522 -27 26 C-26.35289062 25.16855469 -25.70578125 24.33710938 -25.0390625 23.48046875 C-20.3925646 17.58166194 -15.39379314 12.15817303 -10.125 6.8125 C-9.14261353 5.80376831 -9.14261353 5.80376831 -8.14038086 4.7746582 C-7.5191333 4.15421631 -6.89788574 3.53377441 -6.2578125 2.89453125 C-5.7023877 2.33612549 -5.14696289 1.77771973 -4.57470703 1.20239258 C-3 0 -3 0 0 0 Z " fill="#BF3341" transform="translate(617,330)"/>
<path d="M0 0 C3.20539199 3.61899095 4.73978041 6.69048022 5.375 11.5 C4.37145327 19.95846532 0.11201004 26.45832499 -6.0625 32.1875 C-9.8604394 35.09440869 -13.50850571 37.6695019 -18.0625 39.1875 C-18.3925 41.1675 -18.7225 43.1475 -19.0625 45.1875 C-17.78375 45.455625 -16.505 45.72375 -15.1875 46 C-11.68150882 46.76073394 -8.33851164 47.73785194 -4.9375 48.875 C-0.60061152 50.19083613 2.48905854 50.47070427 6.9375 49.1875 C8.97799422 47.9170036 10.98767465 46.59318804 12.9375 45.1875 C13.5975 45.1875 14.2575 45.1875 14.9375 45.1875 C18.78951937 37.54869536 21.78058918 30.00230712 24.0625 21.75 C24.31386719 20.87279297 24.56523438 19.99558594 24.82421875 19.09179688 C26.49059816 13.17222396 27.81753529 7.23352141 28.9375 1.1875 C35.61421716 0.74632254 39.34753779 1.38156828 44.9375 5.1875 C44.9375 6.1775 44.9375 7.1675 44.9375 8.1875 C39.68035714 12.1875 39.68035714 12.1875 36.9375 12.1875 C36.8250293 13.02539062 36.71255859 13.86328125 36.59667969 14.7265625 C35.87854557 18.49703257 34.72301645 21.97747075 33.390625 25.5625 C33.13754578 26.25005371 32.88446655 26.93760742 32.62371826 27.64599609 C32.08864832 29.09255266 31.55061149 30.53801491 31.00976562 31.98242188 C30.19160336 34.17649598 29.39241081 36.37688991 28.59375 38.578125 C28.0688598 39.99001194 27.54285427 41.40148485 27.015625 42.8125 C26.78208313 43.4626709 26.54854126 44.1128418 26.30792236 44.78271484 C24.52080384 49.47129611 22.16432001 52.4528515 18.9375 56.1875 C17.86777975 58.20903127 17.86777975 58.20903127 17.3125 60.17578125 C17.08377197 60.87799805 16.85504395 61.58021484 16.61938477 62.30371094 C16.28185181 63.39087402 16.28185181 63.39087402 15.9375 64.5 C10.11510436 81.90935472 10.11510436 81.90935472 3.30859375 86.125 C-10.90374736 92.49362732 -28.64500143 93.66357697 -43.55078125 89.15234375 C-51.58290437 86.06690921 -56.0962769 81.85104971 -60.0625 74.1875 C-64.71182398 63.58201502 -64.71182398 63.58201502 -65.44921875 58.546875 C-65.87908051 56.04668441 -65.87908051 56.04668441 -67.95068359 54.37548828 C-70.29925472 51.94220569 -71.23934687 49.95726095 -72.46484375 46.8203125 C-72.87758545 45.77584961 -73.29032715 44.73138672 -73.71557617 43.65527344 C-74.13943604 42.5521582 -74.5632959 41.44904297 -75 40.3125 C-75.44384033 39.18875977 -75.88768066 38.06501953 -76.3449707 36.90722656 C-78.67472095 30.96604194 -80.8065468 25.01403033 -82.75 18.9375 C-84.68822604 13.26226259 -86.72919983 10.90643734 -92.0625 8.1875 C-91.3125 4.40625 -91.3125 4.40625 -89.0625 2.4375 C-85.04896784 0.76519493 -81.36368708 0.72538899 -77.0625 1.1875 C-75.33416205 2.91583795 -75.42378728 5.46062092 -75 7.8125 C-73.54251067 14.74986343 -71.51429889 21.40951982 -69.25 28.125 C-68.93087646 29.10742676 -68.61175293 30.08985352 -68.28295898 31.10205078 C-65.69949038 38.57276665 -62.3177952 44.27431028 -55.625 48.6875 C-48.51053314 51.68306499 -42.05859779 48.34132313 -35.05078125 46.02734375 C-32.0625 45.1875 -32.0625 45.1875 -28.0625 45.1875 C-27.77079092 42.3857633 -27.77079092 42.3857633 -29.0625 39.1875 C-31.40961333 37.44060267 -33.86674665 36.08828788 -36.42578125 34.671875 C-43.82380524 30.5070615 -48.39906701 25.35379674 -51.0625 17.1875 C-51.95519297 11.90391885 -52.00861414 6.97905281 -49.25 2.25 C-38.94789223 -9.52383745 -12.25129387 -7.25076576 0 0 Z " fill="#353D43" transform="translate(536.0625,565.8125)"/>
<path d="M0 0 C1.7890625 2.1171875 1.7890625 2.1171875 3.625 4.875 C4.23601563 5.77992188 4.84703125 6.68484375 5.4765625 7.6171875 C7 10 7 10 8 12 C10.22403526 12.18358072 12.45632621 12.26893134 14.6875 12.3125 C29.02696714 12.9710151 41.4238331 18.77363455 51.3125 29.25 C61.1270931 41.57530296 62.31954667 54.86080268 61 70 C59.6433374 76.95558761 56.34164532 83.43726694 52 89 C50.948125 90.4540625 50.948125 90.4540625 49.875 91.9375 C41.19375919 102.05234021 29.09075558 106.17178758 16.27734375 107.7578125 C11.41941273 108.11680144 7.28098786 107.621213 2.56884766 106.33789062 C-0.52272179 105.93124435 -1.79509841 106.48567877 -4.5390625 107.90625 C-5.78042969 108.52693359 -5.78042969 108.52693359 -7.046875 109.16015625 C-7.89765625 109.60230469 -8.7484375 110.04445313 -9.625 110.5 C-11.32098078 111.37345557 -13.02134112 112.2384749 -14.7265625 113.09375 C-15.47502441 113.48240234 -16.22348633 113.87105469 -16.99462891 114.27148438 C-19 115 -19 115 -22 114 C-21.9074292 113.0255896 -21.9074292 113.0255896 -21.81298828 112.03149414 C-21.54898094 109.04374905 -21.33675024 106.05438479 -21.125 103.0625 C-21.02703125 102.04091797 -20.9290625 101.01933594 -20.828125 99.96679688 C-20.39293181 93.15602346 -21.24483237 89.33599291 -25.53662109 83.96582031 C-27.07290237 81.90206709 -27.76570744 80.13738563 -28.5 77.6875 C-31.24810281 70.94215673 -37.8749015 66.68285942 -43.43774414 62.29931641 C-45.07484776 60.93774968 -46.58933249 59.59725674 -48 58 C-48.08369498 52.82021086 -44.35333707 48.80639871 -41.4375 44.8125 C-40.89246826 44.05437012 -40.34743652 43.29624023 -39.78588867 42.51513672 C-35.69653849 36.86336608 -31.4397257 31.38065522 -27 26 C-26.35289062 25.16855469 -25.70578125 24.33710938 -25.0390625 23.48046875 C-20.3925646 17.58166194 -15.39379314 12.15817303 -10.125 6.8125 C-9.14261353 5.80376831 -9.14261353 5.80376831 -8.14038086 4.7746582 C-7.5191333 4.15421631 -6.89788574 3.53377441 -6.2578125 2.89453125 C-5.7023877 2.33612549 -5.14696289 1.77771973 -4.57470703 1.20239258 C-3 0 -3 0 0 0 Z M-15 35 C-22.25934027 45.10063044 -24.1964938 54.70602625 -23 67 C-21.7615577 73.17813832 -19.99282518 78.11724086 -15.75 82.8125 C-11.24185688 88.1248596 -12.54022688 95.46100454 -13 102 C-9.76877556 100.98102466 -7.07664195 100.04768832 -4.1875 98.25 C-0.22824412 96.69735063 1.54320004 97.37603307 5.52734375 98.43359375 C15.74407893 100.77392014 26.05144803 98.36552813 35.05859375 93.26953125 C44.20573458 87.0514613 50.38046616 78.65597817 52.6875 67.75 C53.76986014 54.76167836 52.1724589 44.55695499 43.54296875 34.26171875 C39.05044086 29.34834516 34.07487981 26.60770564 28 24 C27.24074219 23.63390625 26.48148438 23.2678125 25.69921875 22.890625 C10.94589724 18.02266942 -5.03185723 23.65013447 -15 35 Z " fill="#F8F7F6" transform="translate(617,330)"/>
<path d="M0 0 C8.40961966 4.79495858 14.84799831 11.63054955 21 19 C21.72574219 19.82628906 22.45148438 20.65257812 23.19921875 21.50390625 C30.38839623 29.82760771 36.54335352 38.76951396 42.60839844 47.93261719 C43.4803476 49.22799711 44.37622863 50.50792272 45.30566406 51.76269531 C48.05387943 55.51882514 48.05387943 55.51882514 47.77490234 58.01025391 C46.45356436 61.40310349 43.34605527 63.1531583 40.5 65.25 C39.22480106 66.21773539 37.95136694 67.18780059 36.6796875 68.16015625 C36.05416992 68.63727051 35.42865234 69.11438477 34.78417969 69.60595703 C31.02287348 72.54479918 27.50521226 75.76370614 24 79 C20.66026243 77.55053895 18.47695341 75.71827612 15.9375 73.125 C15.26589844 72.44695312 14.59429687 71.76890625 13.90234375 71.0703125 C9.01674071 65.75333177 9.01674071 65.75333177 8.9375 62.1875 C10.32561915 58.02314255 12.53430144 54.74333985 16 52 C17.32 52 18.64 52 20 52 C16.79278871 44.99889243 13.18814518 38.47337414 8.9375 32.0625 C8.32092529 31.12361938 8.32092529 31.12361938 7.69189453 30.16577148 C5.11279892 26.34433794 2.36102833 23.15732964 -1 20 C-4.03433494 30.94422749 -6.25215271 41.65546274 -7 53 C-7.06799805 53.97775391 -7.13599609 54.95550781 -7.20605469 55.96289062 C-8.08948734 70.55522492 -7.59704217 80.02230277 1 92 C1.75390625 94.35546875 1.75390625 94.35546875 2 96 C0.44555348 97.46691458 -1.11892175 98.92320641 -2.6875 100.375 C-3.55761719 101.18710937 -4.42773438 101.99921875 -5.32421875 102.8359375 C-7.86371107 104.88977509 -9.92025866 105.9900668 -13 107 C-13.7874779 105.73941285 -14.55371844 104.4655657 -15.3125 103.1875 C-15.74175781 102.47980469 -16.17101562 101.77210938 -16.61328125 101.04296875 C-20.92107531 91.59009108 -21.47663322 82.3238634 -21.39111328 72.09545898 C-21.37514608 69.8331965 -21.39097459 67.5727526 -21.41015625 65.31054688 C-21.44131604 43.28536896 -16.97376288 17.73946958 -1.28515625 1.2578125 C-0.86105469 0.84273438 -0.43695313 0.42765625 0 0 Z " fill="#F7F7F6" transform="translate(408,330)"/>
<path d="M0 0 C15.40741114 4.51950727 24.25832169 15.78223648 34 28 C35.28753174 29.33877197 35.28753174 29.33877197 36.60107422 30.70458984 C39.46603865 34.15215669 39.58114532 36.87256636 39.48828125 41.3671875 C39.48120651 42.04677521 39.47413177 42.72636292 39.46684265 43.42654419 C39.43906147 45.57719461 39.37636888 47.72514957 39.3125 49.875 C39.28739541 51.34110797 39.26458602 52.80725715 39.24414062 54.2734375 C39.18929288 57.84982023 39.1031413 61.42464664 39 65 C36.03 65.99 36.03 65.99 33 67 C32.32195312 66.00742187 31.64390625 65.01484375 30.9453125 63.9921875 C25.38057917 55.86298672 19.7482414 47.79067094 13.99609375 39.79296875 C12.63208922 37.88443013 11.30124532 35.95186798 10 34 C6.29411056 32.48722274 2.12375611 32.77493538 -1.828125 32.68359375 C-2.95163361 32.6524221 -2.95163361 32.6524221 -4.09783936 32.62062073 C-6.48180288 32.55542912 -8.86587312 32.49638217 -11.25 32.4375 C-12.86980254 32.39428584 -14.48959443 32.35067063 -16.109375 32.30664062 C-20.07280832 32.19977904 -24.0363486 32.09842667 -28 32 C-27.05799736 30.73775429 -26.11511599 29.47616434 -25.171875 28.21484375 C-24.6469043 27.51222412 -24.12193359 26.80960449 -23.58105469 26.08569336 C-17.72742696 18.36371348 -17.72742696 18.36371348 -15 17 C-5.97612647 16.57208968 3.01712939 17.16438413 12 18 C10.90073597 16.22611914 9.79539498 14.45600316 8.6875 12.6875 C8.07261719 11.70136719 7.45773437 10.71523438 6.82421875 9.69921875 C5.15555239 7.04600422 5.15555239 7.04600422 3.26953125 5.26953125 C2.85058594 4.85058594 2.43164062 4.43164062 2 4 C2 3.34 2 2.68 2 2 C1.34 2 0.68 2 0 2 C0 1.34 0 0.68 0 0 Z " fill="#F7F7F7" transform="translate(454,440)"/>
<path d="M0 0 C-1.75066796 3.88609811 -4.18324006 7.27812258 -6.625 10.75 C-7.04523437 11.35199219 -7.46546875 11.95398438 -7.8984375 12.57421875 C-8.92993137 14.05113043 -9.96464579 15.52579194 -11 17 C-10.22398437 16.95810547 -9.44796875 16.91621094 -8.6484375 16.87304688 C-5.09949514 16.70576379 -1.55138255 16.60240856 2 16.5 C3.22074219 16.43296875 4.44148437 16.3659375 5.69921875 16.296875 C14.5836795 16.10477855 14.5836795 16.10477855 18.484375 18.5703125 C22.59071574 22.56859164 25.69655312 27.3384694 29 32 C27.93563721 32.00410889 26.87127441 32.00821777 25.7746582 32.01245117 C21.81388366 32.03427448 17.85409805 32.08859606 13.89379883 32.15258789 C12.18198141 32.17574025 10.4700221 32.19015715 8.75805664 32.19555664 C6.29223502 32.20486703 3.82863626 32.24589779 1.36328125 32.29296875 C0.22080681 32.28706978 0.22080681 32.28706978 -0.94474792 32.28105164 C-4.91779578 32.38938906 -6.76317806 32.80619089 -9.87524414 35.35302734 C-12.25883731 38.32245364 -14.56579134 41.31965439 -16.75 44.4375 C-17.17684082 45.03715576 -17.60368164 45.63681152 -18.04345703 46.25463867 C-20.29258216 49.44580791 -22.44864026 52.67508368 -24.5078125 55.9921875 C-24.90645508 56.6322876 -25.30509766 57.2723877 -25.71582031 57.93188477 C-26.47420043 59.16225588 -27.22146499 60.39956568 -27.95605469 61.64428711 C-29.43352133 64.05091456 -30.49366244 65.75256334 -33.0703125 67.01171875 C-35 67 -35 67 -38 65 C-38.70632785 60.76524349 -38.68538037 56.49505875 -38.72070312 52.20874023 C-38.74951157 50.09828137 -38.84228565 47.99702497 -38.9375 45.88867188 C-39.14395573 37.15903329 -37.55099715 31.83888787 -31.36132812 25.31274414 C-30.1924707 24.16793579 -30.1924707 24.16793579 -29 23 C-27.9058838 21.77155877 -26.81870402 20.53686195 -25.7421875 19.29296875 C-24.79106269 18.25358033 -23.83542922 17.21829698 -22.875 16.1875 C-22.10881348 15.36487671 -22.10881348 15.36487671 -21.32714844 14.52563477 C-7.66259729 0 -7.66259729 0 0 0 Z " fill="#F7F7F7" transform="translate(570,440)"/>
<path d="M0 0 C1.25425781 0.00902344 2.50851562 0.01804687 3.80078125 0.02734375 C4.75339844 0.03894531 5.70601563 0.05054688 6.6875 0.0625 C7.00203125 0.85914063 7.3165625 1.65578125 7.640625 2.4765625 C12.13440283 14.13501737 12.13440283 14.13501737 21.78515625 21.30078125 C26.95829059 23.37215948 31.94310285 23.30712971 37.43945312 23.31640625 C43.13224631 23.50467965 43.13224631 23.50467965 46.22265625 26.609375 C46.70605469 27.41890625 47.18945312 28.2284375 47.6875 29.0625 C46.1820581 32.63185418 44.09462438 34.83341235 41.3125 37.5 C38.80780322 39.93656902 36.53978166 42.25014222 34.375 45 C32.4305024 47.37660817 31.6400898 48.20252239 28.6875 49.0625 C25.77644178 48.30015007 23.16251838 47.45675951 20.375 46.375 C19.64087891 46.10494141 18.90675781 45.83488281 18.15039062 45.55664062 C16.68470454 45.01172273 15.2244194 44.45204803 13.77001953 43.87768555 C11.87553805 43.13610598 9.95619145 42.45885659 8.03515625 41.7890625 C3.7706944 39.5896551 1.40093512 36.82547504 -1.5625 33.125 C-2.078125 32.50431641 -2.59375 31.88363281 -3.125 31.24414062 C-4.11288785 30.0487454 -5.0909106 28.84510718 -6.05737305 27.63232422 C-7.04150087 26.40144659 -8.06294557 25.20039075 -9.09765625 24.01171875 C-12.96743871 17.80264657 -12.59286697 8.21185777 -12.3125 1.0625 C-8.15623632 0.05323521 -4.26884906 -0.03989579 0 0 Z " fill="#F8F9F9" transform="translate(434.3125,481.9375)"/>
<path d="M0 0 C6.35219042 0.54881057 12.67873638 1.16511613 19 2 C19.13046685 5.34140094 19.10332236 8.65774642 19 12 C18.98066406 12.8765625 18.96132813 13.753125 18.94140625 14.65625 C18.11367739 23.31556726 13.14358794 28.43525964 7.37060547 34.47875977 C5.76801886 36.19519634 5.76801886 36.19519634 3.80078125 39.140625 C0.37810327 43.28679588 -4.52143636 44.4069512 -9.5 45.9375 C-10.43714844 46.25267578 -11.37429688 46.56785156 -12.33984375 46.89257812 C-20.44134808 49.49540186 -20.44134808 49.49540186 -25 48 C-27.03637695 46.41772461 -27.03637695 46.41772461 -28.98828125 44.40234375 C-30.04692383 43.32436523 -30.04692383 43.32436523 -31.12695312 42.22460938 C-31.84818359 41.46986328 -32.56941406 40.71511719 -33.3125 39.9375 C-34.05306641 39.17888672 -34.79363281 38.42027344 -35.55664062 37.63867188 C-37.38043834 35.76780841 -39.19424304 33.88825508 -41 32 C-39.92598892 29.08482708 -39.22189824 27.22189824 -37 25 C-35.17163086 24.65283203 -35.17163086 24.65283203 -32.96484375 24.5078125 C-32.15926025 24.44489014 -31.35367676 24.38196777 -30.52368164 24.31713867 C-29.6702417 24.25373291 -28.81680176 24.19032715 -27.9375 24.125 C-16.33881282 23.15079413 -16.33881282 23.15079413 -6.94921875 16.8203125 C-4.69119121 13.55318648 -3.51488293 10.44701316 -2.25 6.6875 C-1.91935547 5.71973633 -1.91935547 5.71973633 -1.58203125 4.73242188 C-1.04557015 3.15802516 -0.52148643 1.57941996 0 0 Z " fill="#F9F9F9" transform="translate(584,481)"/>
<path d="M0 0 C-0.68852934 5.50823472 -2.95209727 10.8058185 -6.75 14.875 C-13.67086581 18.33543291 -20.93247348 18.33703802 -28.5 18.3125 C-29.99080078 18.33666992 -29.99080078 18.33666992 -31.51171875 18.36132812 C-37.71966046 18.36542848 -42.37114513 17.67001554 -48 15 C-51.22353572 11.77646428 -53.18696016 8.16999164 -55 4 C-55 3.01 -55 2.02 -55 1 C-47.48861175 0.85732136 -39.97721801 0.71493462 -32.46582031 0.57275391 C-29.90885288 0.5243191 -27.35188673 0.47581669 -24.79492188 0.42724609 C-21.1263054 0.35757082 -17.45768445 0.2881362 -13.7890625 0.21875 C-12.64007477 0.19687622 -11.49108704 0.17500244 -10.30728149 0.15246582 C-8.71585831 0.12243469 -8.71585831 0.12243469 -7.09228516 0.09179688 C-6.15518707 0.07403198 -5.21808899 0.05626709 -4.25259399 0.03796387 C-2.83520746 0.01407609 -1.41758782 0 0 0 Z " fill="#F6F6F6" transform="translate(540,628)"/>
<path d="M0 0 C2.08429193 0.78913943 4.16739869 1.58140963 6.25 2.375 C7.41015625 2.81585938 8.5703125 3.25671875 9.765625 3.7109375 C13 5 13 5 17 7 C17 12.94 17 18.88 17 25 C6.71361186 22.94272237 6.71361186 22.94272237 3 20 C1.51339134 16.39805887 1.2596205 12.86315298 1 9 C0.79621253 7.2702917 0.58833454 5.54105677 0.375 3.8125 C0.25125 2.554375 0.1275 1.29625 0 0 Z " fill="#F9F7F6" transform="translate(614,392)"/>
<path d="M0 0 C0.66 0 1.32 0 2 0 C3.2890625 1.75 3.2890625 1.75 4.625 4 C5.07101562 4.7425 5.51703125 5.485 5.9765625 6.25 C6.31429687 6.8275 6.65203125 7.405 7 8 C7.66 6.68 8.32 5.36 9 4 C10 5 10 5 10.1875 8.25 C10 12 10 12 8 17 C12.95 18.98 12.95 18.98 18 21 C18 23.31 18 25.62 18 28 C11.95198929 27.45018084 6.69398894 26.09570426 1 24 C1 22.35 1 20.7 1 19 C-0.32 19 -1.64 19 -3 19 C-3.17016853 14.57561829 -3.00025858 11.88285489 -1 8 C-0.5311656 5.33640239 -0.26945451 2.69454509 0 0 Z " fill="#C33741" transform="translate(632,361)"/>
<path d="M0 0 C-2.14915357 18.10674465 -2.14915357 18.10674465 -6.38671875 22.44140625 C-10.05521523 24.23548847 -12.92004659 25 -17 25 C-18.21523362 9.69143204 -18.21523362 9.69143204 -15.46484375 5.86328125 C-13.34079166 4.56593152 -11.36813984 3.75631691 -9 3 C-7.70563433 2.40163753 -6.41371246 1.79794274 -5.125 1.1875 C-2 0 -2 0 0 0 Z " fill="#F8F6F5" transform="translate(650,392)"/>
<path d="M0 0 C0 0.66 0 1.32 0 2 C-9.97468354 8.12658228 -9.97468354 8.12658228 -14.625 7.8359375 C-16.90754563 7.07251852 -18.90118328 6.17362404 -21 5 C-22.010625 4.484375 -23.02125 3.96875 -24.0625 3.4375 C-24.701875 2.963125 -25.34125 2.48875 -26 2 C-26 1.34 -26 0.68 -26 0 C-16.54650723 -4.12516048 -9.54586686 -3.79126627 0 0 Z " fill="#F4F2F1" transform="translate(645,390)"/>
<path d="M0 0 C2.31 0 4.62 0 7 0 C7.1953125 2.01822917 7.390625 4.03645833 7.5859375 6.0546875 C7.86374749 8.22668245 7.86374749 8.22668245 10 10 C12.65537372 10.56520003 15.29144713 10.73788198 18 11 C17.625 12.9375 17.625 12.9375 17 15 C13.79386153 16.60306924 10.47860003 16.48740461 7 16 C3.56176878 13.9071636 1.18830647 11.889003 0 8 C-0.15007306 5.30903473 -0.08999955 2.69998637 0 0 Z " fill="#EDEDEE" transform="translate(452,481)"/>
<path d="M0 0 C1.98 0 3.96 0 6 0 C6.45760607 5.7200759 5.63848132 8.55296727 2 13 C0.06777377 15.07024239 -1.14575671 15.89279417 -3.9609375 16.24609375 C-6.125 16.3125 -6.125 16.3125 -10 16 C-10.66 15.34 -11.32 14.68 -12 14 C-12 13.01 -12 12.02 -12 11 C-10.1128125 10.87625 -10.1128125 10.87625 -8.1875 10.75 C-5.3283105 10.38123528 -4.27981687 10.24371146 -2.0625 8.3125 C-0.79452949 5.55279949 -0.34181911 3.00800814 0 0 Z " fill="#EFEFEF" transform="translate(567,481)"/>
<path d="M0 0 C1.81332154 0.30769707 3.62564345 0.62129064 5.4375 0.9375 C6.95150391 1.19853516 6.95150391 1.19853516 8.49609375 1.46484375 C11 2 11 2 12 3 C12.04092937 5.33297433 12.04241723 7.66705225 12 10 C5.79011871 9.55643705 1.39459439 8.08467498 -4 5 C-2.68 3.35 -1.36 1.7 0 0 Z " fill="#F5F0F0" transform="translate(638,379)"/>
<path d="M0 0 C1.8125 1.4375 1.8125 1.4375 3 3 C3 3.66 3 4.32 3 5 C0.52142796 5.83513859 -1.95781067 6.66819125 -4.4375 7.5 C-5.14455078 7.73847656 -5.85160156 7.97695313 -6.58007812 8.22265625 C-11.88671875 10 -11.88671875 10 -13 10 C-13 7.36 -13 4.72 -13 2 C-4.42046127 -1.76818451 -4.42046127 -1.76818451 0 0 Z " fill="#F6F0F1" transform="translate(627,380)"/>
<path d="M0 0 C0.33 0.99 0.66 1.98 1 3 C1.66 3 2.32 3 3 3 C2.67 6.3 2.34 9.6 2 13 C3.32 13 4.64 13 6 13 C6 14.65 6 16.3 6 18 C7.65 18.33 9.3 18.66 11 19 C7.42355152 20.2380014 4.66305234 19.74926071 1 19 C1.66 18.67 2.32 18.34 3 18 C0.61042731 14.75700849 -1.2047869 12.49097658 -5 11 C-4.67 10.34 -4.34 9.68 -4 9 C-3.34 9 -2.68 9 -2 9 C-1.34 6.03 -0.68 3.06 0 0 Z " fill="#C02F39" transform="translate(627,367)"/>
<path d="M0 0 C0.66 0 1.32 0 2 0 C3.34110539 2.20887947 4.06609767 3.45469419 3.75 6.0625 C3 8 3 8 1 11 C0.60986284 12.9896995 0.26797351 14.99019869 0 17 C-0.99 17 -1.98 17 -3 17 C-2.25339288 11.27601207 -1.17122859 5.65146223 0 0 Z " fill="#EDD7D6" transform="translate(632,361)"/>
<path d="M0 0 C0.33 0 0.66 0 1 0 C1 2.31 1 4.62 1 7 C-0.98 7.66 -2.96 8.32 -5 9 C-5 8.34 -5 7.68 -5 7 C-9.455 6.01 -9.455 6.01 -14 5 C-11 3 -11 3 -8.30078125 3.4609375 C-6.82158203 3.91339844 -6.82158203 3.91339844 -5.3125 4.375 C-3.82169922 4.81972656 -3.82169922 4.81972656 -2.30078125 5.2734375 C-1.54152344 5.51320313 -0.78226563 5.75296875 0 6 C0 4.02 0 2.04 0 0 Z " fill="#CB555C" transform="translate(650,383)"/>
<path d="M0 0 C0 0.33 0 0.66 0 1 C-10 3 -10 3 -12.76953125 3.44140625 C-13.50558594 3.62574219 -14.24164062 3.81007813 -15 4 C-15.33 4.66 -15.66 5.32 -16 6 C-16.99 5.01 -17.98 4.02 -19 3 C-12.2011529 0.0879938 -7.31129316 -1.65538713 0 0 Z " fill="#CE5F65" transform="translate(634,386)"/>
<path d="M0 0 C0.33 0.66 0.66 1.32 1 2 C0.34 2.7425 -0.32 3.485 -1 4.25 C-3.39211447 6.97242945 -3.39211447 6.97242945 -3 11 C-1.5833253 12.7511573 -1.5833253 12.7511573 0 14 C-2.9375 13.25 -2.9375 13.25 -6 12 C-6.90625 10.1875 -6.90625 10.1875 -7 8 C-5.56640625 5.859375 -5.56640625 5.859375 -3.5625 3.75 C-2.57443359 2.69039062 -2.57443359 2.69039062 -1.56640625 1.609375 C-1.04949219 1.07828125 -0.53257812 0.5471875 0 0 Z " fill="#3B3739" transform="translate(368,596)"/>
<path d="M0 0 C0.66 0.33 1.32 0.66 2 1 C2.25 7.625 2.25 7.625 0 11 C-0.66 11 -1.32 11 -2 11 C-1 3.57142857 -1 3.57142857 0 0 Z " fill="#F3E5E7" transform="translate(640,365)"/>
<path d="M0 0 C0.33 0.99 0.66 1.98 1 3 C1.66 3 2.32 3 3 3 C2.49396008 5.16874252 2.00016187 6.99967627 1 9 C0.01 9 -0.98 9 -2 9 C-1.34 6.03 -0.68 3.06 0 0 Z M-4 9 C-2 10 -2 10 -2 10 Z " fill="#BB2833" transform="translate(627,367)"/>
<path d="M0 0 C0.99 0.33 1.98 0.66 3 1 C3.1875 4.375 3.1875 4.375 3 8 C2.01 8.66 1.02 9.32 0 10 C-1.231394 6.30581799 -0.64432764 3.7943739 0 0 Z " fill="#F1E8E7" transform="translate(623,365)"/>
<path d="M0 0 C0.66 0 1.32 0 2 0 C3.42944945 2.35438733 4.08661261 3.48032433 3.625 6.25 C3.41875 6.8275 3.2125 7.405 3 8 C2.34 8 1.68 8 1 8 C0.67 5.36 0.34 2.72 0 0 Z " fill="#F3E9EA" transform="translate(632,361)"/>
</svg>
